# xmcd
#
# Track frame offsets:
#	150
#	11063
#	25418
#	40538
#	52043
#	67673
#	82928
#	96601
#	109651
#	121621
#
# Disc length: 1789 seconds
#
# Revision: 0
# Processed by: cddbd v1.5.2PL0 Copyright (c) Steve Scherf et al.
# Submitted via: audiograbber 1.83.01
#
DISCID=7306fb0a
DTITLE=Sylvia - Drifter
DYEAR=1981
DGENRE=Country
TTITLE0=Drifter
TTITLE1=Tumbleweed
TTITLE2=I'm Going With Him
TTITLE3=It Don't Hurt To Dream
TTITLE4=The Matador
TTITLE5=Whippoorwill
TTITLE6=Heart On The Mend
TTITLE7=Cry Baby Cry
TTITLE8=Missin' You
TTITLE9=Rainbow Rider
EXTD=This is from my LP's That I converted to CD's
EXTT0=
EXTT1=
EXTT2=
EXTT3=
EXTT4=
EXTT5=
EXTT6=
EXTT7=
EXTT8=
EXTT9=
PLAYORDER=
